<svg width="400" height="400" viewBox="0 0 400 400" fill="none" xmlns="http://www.w3.org/2000/svg">
<path d="M214.752 205.856C208.88 211.464 199.088 212.4 192.256 208.016C185.424 203.624 182.208 194.336 184.864 186.664C177.592 185.824 170.072 186.024 166.112 179.864C162.16 173.696 164.432 160.72 171.64 159.408C164.584 153.312 161.704 142.816 164.664 133.976C167.632 125.136 176.256 118.488 185.56 117.888C178.8 111.88 179.448 100.984 184.712 93.632C192.152 83.232 208.672 85.712 214.832 92.336L214.752 205.856Z" fill="#2243A4"/>
<path d="M202.016 213.152C198.152 213.152 194.288 212.12 190.984 210C184.024 205.528 180.416 196.776 181.888 188.728C181.808 188.72 181.72 188.712 181.64 188.704C175.016 188.072 168.16 187.416 164.128 181.136C161.328 176.768 161.048 169.568 163.464 164.016C164.48 161.688 165.88 159.864 167.56 158.656C161.664 151.816 159.536 141.832 162.424 133.224C165.224 124.872 172.56 118.336 181.056 116.208C176.456 109.016 177.968 98.992 182.792 92.248C186.176 87.52 191.576 84.688 198.008 84.272C205.096 83.824 212.552 86.408 216.568 90.712C216.976 91.152 217.2 91.728 217.2 92.32L217.12 205.856C217.12 206.504 216.856 207.12 216.392 207.56C212.528 211.24 207.272 213.152 202.016 213.152ZM199.632 88.936C199.192 88.936 198.752 88.952 198.312 88.976C194.784 89.2 189.896 90.432 186.632 94.984C182.184 101.2 181.16 110.8 187.128 116.104C187.84 116.736 188.104 117.736 187.792 118.632C187.48 119.536 186.664 120.16 185.712 120.224C177.312 120.768 169.576 126.728 166.896 134.704C164.224 142.688 166.8 152.104 173.176 157.6C173.864 158.192 174.152 159.128 173.912 160.008C173.672 160.888 172.952 161.544 172.056 161.712C169.728 162.136 168.384 164.504 167.784 165.88C166.008 169.96 166.144 175.536 168.088 178.568C170.88 182.92 176.064 183.416 182.072 183.984C183.088 184.08 184.104 184.176 185.12 184.296C185.832 184.376 186.464 184.776 186.848 185.384C187.232 185.992 187.312 186.736 187.08 187.416C184.784 194.048 187.616 202.216 193.52 206.008C199.152 209.624 207.24 209.04 212.376 204.776L212.456 93.28C209.528 90.632 204.528 88.936 199.632 88.936Z" fill="#292828"/>
<path d="M226.592 170.264C225.288 170.264 224.232 169.208 224.232 167.904C224.232 166.6 225.288 165.544 226.592 165.544C236.336 165.544 244.264 157.616 244.264 147.872C244.264 138.128 236.336 130.2 226.592 130.2C225.288 130.2 224.232 129.144 224.232 127.84C224.232 126.536 225.288 125.48 226.592 125.48C238.936 125.48 248.984 135.528 248.984 147.872C248.984 160.216 238.936 170.264 226.592 170.264Z" fill="#292828"/>
<path d="M235.176 211.528H226.592C225.288 211.528 224.232 210.472 224.232 209.168C224.232 207.864 225.288 206.808 226.592 206.808H232.816V191.272C232.816 190.144 233.616 189.176 234.72 188.952C240.184 187.88 245.288 185.76 249.896 182.672C250.832 182.04 252.088 182.168 252.88 182.96L263.864 193.944L272.664 185.144L261.68 174.16C260.88 173.36 260.76 172.112 261.392 171.176C264.488 166.568 266.6 161.464 267.672 156C267.888 154.896 268.864 154.096 269.992 154.096H285.528V141.648H269.992C268.864 141.648 267.896 140.848 267.672 139.744C266.6 134.28 264.48 129.176 261.392 124.568C260.76 123.632 260.888 122.384 261.68 121.584L272.664 110.6L263.864 101.8L252.88 112.784C252.08 113.584 250.832 113.704 249.896 113.072C245.288 109.976 240.184 107.864 234.72 106.792C233.616 106.576 232.816 105.6 232.816 104.472V88.936H226.592C225.288 88.936 224.232 87.88 224.232 86.576C224.232 85.272 225.288 84.216 226.592 84.216H235.176C236.48 84.216 237.536 85.272 237.536 86.576V102.568C242.264 103.704 246.744 105.552 250.88 108.088L262.184 96.784C263.104 95.864 264.6 95.864 265.52 96.784L277.664 108.928C278.584 109.848 278.584 111.344 277.664 112.264L266.36 123.568C268.896 127.712 270.744 132.184 271.88 136.912H287.872C289.176 136.912 290.232 137.968 290.232 139.272V156.44C290.232 157.744 289.176 158.8 287.872 158.8H271.88C270.744 163.528 268.896 168.008 266.36 172.152L277.664 183.456C278.104 183.896 278.352 184.496 278.352 185.128C278.352 185.752 278.104 186.352 277.664 186.8L265.52 198.944C264.6 199.864 263.104 199.864 262.184 198.944L250.88 187.64C246.736 190.176 242.264 192.024 237.536 193.16V209.152C237.536 210.472 236.48 211.528 235.176 211.528Z" fill="#292828"/>
<path d="M198.488 130.2C197.984 130.2 197.48 130.04 197.048 129.712L162.064 102.752C161.48 102.304 161.144 101.616 161.144 100.88V75.656C161.144 74.352 162.2 73.296 163.504 73.296C164.808 73.296 165.864 74.352 165.864 75.656V99.712L199.928 125.96C200.96 126.752 201.152 128.24 200.36 129.272C199.896 129.88 199.2 130.2 198.488 130.2Z" fill="#292828"/>
<path d="M153.039 166.68H132.055C130.751 166.68 129.695 165.624 129.695 164.32C129.695 163.016 130.751 161.96 132.055 161.96H152.735L192.023 151.56C193.287 151.232 194.575 151.976 194.911 153.24C195.247 154.504 194.495 155.792 193.231 156.128L153.647 166.608C153.447 166.656 153.247 166.68 153.039 166.68Z" fill="#292828"/>
<path d="M165.064 228.096C163.76 228.096 162.704 227.04 162.704 225.736V209.728C162.704 209.16 162.904 208.616 163.272 208.192L196.696 169.24C197.544 168.248 199.032 168.136 200.024 168.984C201.016 169.832 201.128 171.32 200.28 172.312L167.424 210.6V225.736C167.432 227.04 166.368 228.096 165.064 228.096Z" fill="#292828"/>
<path d="M167.494 74.6757C171.584 72.5036 173.138 67.4275 170.966 63.338C168.794 59.2485 163.718 57.6941 159.628 59.8662C155.539 62.0383 153.984 67.1143 156.157 71.2039C158.329 75.2934 163.405 76.8478 167.494 74.6757Z" fill="#FFD740"/>
<path d="M164.4 64.24C163.496 67.16 160.4 68.792 157.48 67.888C156.544 67.6 155.76 67.064 155.128 66.4C154.728 70.296 157.112 74.056 160.992 75.256C165.416 76.624 170.112 74.152 171.48 69.728C172.848 65.304 170.376 60.608 165.952 59.24C165.032 58.952 164.112 58.872 163.2 58.904C164.464 60.296 165 62.304 164.4 64.24Z" fill="#E6C238"/>
<path d="M163.56 78.024C162.496 78.024 161.416 77.864 160.368 77.536C157.624 76.688 155.376 74.824 154.04 72.28C152.704 69.744 152.432 66.832 153.28 64.088C154.128 61.344 155.992 59.096 158.536 57.76C161.08 56.424 163.984 56.152 166.728 57C172.392 58.752 175.568 64.784 173.816 70.448C172.968 73.192 171.104 75.44 168.56 76.776C166.992 77.6 165.288 78.024 163.56 78.024ZM163.544 61.24C162.576 61.24 161.624 61.472 160.744 61.936C159.32 62.688 158.272 63.944 157.8 65.488C157.32 67.024 157.472 68.656 158.224 70.08C158.976 71.504 160.232 72.552 161.768 73.024C163.312 73.504 164.936 73.352 166.36 72.6C167.784 71.848 168.832 70.592 169.304 69.048C170.288 65.872 168.504 62.496 165.328 61.512C164.744 61.328 164.144 61.24 163.544 61.24Z" fill="#292828"/>
<path d="M126.143 156.312C130.567 157.68 133.047 162.376 131.671 166.8C130.303 171.224 125.607 173.704 121.183 172.328C116.759 170.96 114.279 166.264 115.655 161.84C117.023 157.416 121.719 154.936 126.143 156.312Z" fill="#FFD740"/>
<path d="M124.52 161.288C123.616 164.208 120.52 165.84 117.6 164.936C116.664 164.648 115.88 164.112 115.248 163.448C114.848 167.344 117.232 171.104 121.112 172.304C125.536 173.672 130.232 171.2 131.6 166.776C132.968 162.352 130.496 157.656 126.072 156.288C125.152 156 124.232 155.92 123.32 155.952C124.584 157.352 125.12 159.352 124.52 161.288Z" fill="#E6C238"/>
<path d="M123.68 175.072C122.616 175.072 121.536 174.912 120.488 174.584C117.744 173.736 115.496 171.872 114.16 169.328C112.824 166.792 112.552 163.88 113.4 161.136C115.152 155.472 121.184 152.296 126.848 154.048C129.592 154.896 131.84 156.76 133.176 159.304C134.512 161.84 134.784 164.752 133.936 167.496C133.088 170.24 131.224 172.488 128.68 173.824C127.112 174.656 125.408 175.072 123.68 175.072ZM123.672 158.296C121.104 158.296 118.712 159.96 117.912 162.544C117.44 164.08 117.584 165.712 118.336 167.136C119.088 168.56 120.344 169.608 121.888 170.08C123.424 170.56 125.056 170.408 126.48 169.656C127.904 168.904 128.952 167.648 129.424 166.104C129.904 164.568 129.752 162.936 129 161.512C128.248 160.088 126.992 159.04 125.448 158.568C124.856 158.384 124.264 158.296 123.672 158.296Z" fill="#292828"/>
<path d="M167.584 227.408C172.008 228.776 174.488 233.472 173.112 237.896C171.744 242.32 167.048 244.8 162.624 243.424C158.2 242.056 155.72 237.36 157.096 232.936C158.464 228.52 163.16 226.04 167.584 227.408Z" fill="#FFD740"/>
<path d="M165.959 232.392C165.055 235.312 161.959 236.944 159.039 236.04C158.103 235.752 157.319 235.216 156.687 234.552C156.287 238.448 158.671 242.208 162.551 243.408C166.975 244.776 171.671 242.304 173.039 237.88C174.407 233.456 171.935 228.76 167.511 227.392C166.591 227.104 165.671 227.024 164.759 227.056C166.023 228.448 166.551 230.456 165.959 232.392Z" fill="#E6C238"/>
<path d="M165.095 246.168C164.047 246.168 162.975 246.016 161.927 245.688C156.263 243.936 153.087 237.904 154.839 232.24C155.687 229.496 157.551 227.248 160.095 225.912C162.631 224.576 165.543 224.304 168.287 225.152C171.031 226 173.279 227.864 174.615 230.408C175.951 232.944 176.223 235.856 175.375 238.6C173.943 243.208 169.687 246.168 165.095 246.168ZM165.095 229.392C164.127 229.392 163.175 229.624 162.295 230.088C160.871 230.84 159.823 232.096 159.351 233.632C158.367 236.808 160.151 240.184 163.327 241.168C166.495 242.152 169.879 240.368 170.863 237.192C171.335 235.656 171.191 234.024 170.439 232.6C169.687 231.176 168.431 230.128 166.887 229.656C166.295 229.488 165.695 229.392 165.095 229.392Z" fill="#292828"/>
<path d="M186.679 108.32C185.871 108.32 185.183 107.704 185.111 106.88C184.695 102.088 186.759 97.224 190.495 94.184C194.231 91.152 199.415 90.128 204.023 91.528C204.855 91.784 205.327 92.656 205.071 93.488C204.815 94.32 203.943 94.792 203.111 94.536C199.543 93.456 195.367 94.272 192.479 96.624C189.583 98.976 187.927 102.888 188.247 106.6C188.319 107.464 187.679 108.232 186.815 108.304C186.775 108.32 186.727 108.32 186.679 108.32Z" fill="#2243A4"/>
<path d="M171.16 144.6C170.352 144.6 169.664 143.976 169.592 143.152C169.248 138.976 170.352 134.76 172.696 131.28C175.04 127.808 178.536 125.2 182.536 123.952C183.36 123.696 184.248 124.152 184.512 124.984C184.768 125.816 184.312 126.696 183.48 126.96C180.16 128 177.256 130.16 175.312 133.04C173.368 135.928 172.456 139.424 172.736 142.896C172.808 143.76 172.16 144.52 171.296 144.592C171.248 144.6 171.208 144.6 171.16 144.6Z" fill="#2243A4"/>
<path d="M7.95999 332.672V262.048C7.95999 260.544 8.23999 259.488 8.80799 258.888C9.37599 258.288 10.448 257.984 12.024 257.984H49.536C51.12 257.984 52.232 258.248 52.872 258.776C53.512 259.304 53.944 260.288 54.168 261.712L55.408 270.528C55.632 272.04 55.408 273.088 54.728 273.688C54.048 274.296 52.88 274.592 51.224 274.592H29.768V287.704H45.024C46.528 287.704 47.584 287.984 48.184 288.552C48.784 289.12 49.088 290.192 49.088 291.776V299.912C49.088 301.424 48.784 302.472 48.184 303.072C47.584 303.68 46.528 303.976 45.024 303.976H29.768V319.456H51.92C53.576 319.456 54.728 319.76 55.368 320.36C56.008 320.96 56.256 322.016 56.104 323.52L54.632 332.896C54.48 334.4 54.064 335.424 53.392 335.944C52.712 336.472 51.584 336.736 50 336.736H12.032C10.528 336.736 9.47199 336.44 8.87199 335.832C8.26399 335.24 7.95999 334.184 7.95999 332.672Z" fill="#2243A4"/>
<path d="M63.552 332.672V298.208C63.552 290.6 65.344 285.44 68.92 282.728C72.496 280.016 78.128 278.664 85.816 278.664C89.208 278.664 92.296 278.968 95.08 279.568C96.512 279.944 97.528 280.472 98.128 281.152C98.728 281.832 99.072 282.808 99.144 284.088L99.712 293.128C99.864 294.712 99.6 295.768 98.92 296.288C98.24 296.816 97.112 296.928 95.528 296.624C92.368 295.944 90.032 295.608 88.52 295.608C87.168 295.608 86.24 295.872 85.752 296.4C85.264 296.928 85.016 297.872 85.016 299.224V332.672C85.016 334.176 84.712 335.232 84.112 335.832C83.504 336.44 82.456 336.736 80.952 336.736H67.624C66.192 336.736 65.152 336.44 64.52 335.832C63.872 335.24 63.552 334.184 63.552 332.672Z" fill="#2243A4"/>
<path d="M102.536 320.808V318.664C102.536 312.264 104.384 307.928 108.072 305.672C111.76 303.416 117.904 301.984 126.488 301.376L131.688 301.04V296.856C131.688 295.424 131.368 294.48 130.728 294.032C130.088 293.584 129.048 293.352 127.616 293.352C122.344 293.352 116.992 294.072 111.568 295.496C109.76 295.944 108.536 295.928 107.896 295.44C107.256 294.952 107.008 293.88 107.16 292.224L107.608 286.12C107.68 284.688 108.056 283.6 108.736 282.84C109.416 282.088 110.504 281.448 112.016 280.92C116.832 279.416 122.488 278.664 128.968 278.664C136.576 278.664 142.392 280.136 146.424 283.072C150.456 286.008 152.472 291.208 152.472 298.664V328.16C152.472 329.664 152.264 330.816 151.848 331.608C151.432 332.4 150.512 333.136 149.08 333.808C143.28 336.448 135.592 337.76 126.024 337.76C118.264 337.76 112.408 336.632 108.456 334.368C104.512 332.112 102.536 327.592 102.536 320.808ZM122.992 318.096V319C122.992 320.736 123.368 321.848 124.12 322.336C124.872 322.824 125.888 323.072 127.168 323.072C128.752 323.072 130.256 322.888 131.688 322.504V313.576C129.728 313.656 128.112 313.768 126.832 313.912C124.272 314.216 122.992 315.608 122.992 318.096Z" fill="#2243A4"/>
<path d="M160.28 320.808V318.664C160.28 312.264 162.128 307.928 165.816 305.672C169.504 303.416 175.648 301.984 184.232 301.376L189.432 301.04V296.856C189.432 295.424 189.112 294.48 188.472 294.032C187.832 293.584 186.792 293.352 185.36 293.352C180.088 293.352 174.736 294.072 169.312 295.496C167.504 295.944 166.28 295.928 165.64 295.44C165 294.952 164.752 293.88 164.904 292.224L165.352 286.12C165.424 284.688 165.8 283.6 166.48 282.84C167.16 282.088 168.248 281.448 169.76 280.92C174.576 279.416 180.232 278.664 186.712 278.664C194.32 278.664 200.136 280.136 204.168 283.072C208.2 286.008 210.216 291.208 210.216 298.664V328.16C210.216 329.664 210.008 330.816 209.592 331.608C209.176 332.4 208.256 333.136 206.824 333.808C201.024 336.448 193.336 337.76 183.768 337.76C176.008 337.76 170.152 336.632 166.2 334.368C162.256 332.112 160.28 327.592 160.28 320.808ZM180.728 318.096V319C180.728 320.736 181.104 321.848 181.856 322.336C182.608 322.824 183.624 323.072 184.904 323.072C186.488 323.072 187.992 322.888 189.424 322.504V313.576C187.464 313.656 185.848 313.768 184.568 313.912C182.008 314.216 180.728 315.608 180.728 318.096Z" fill="#2243A4"/>
<path d="M222.08 333.92L221.512 329.176C221.432 328.576 221.512 328.16 221.736 327.936C221.96 327.712 222.416 327.672 223.088 327.824C230.768 329.104 236.424 329.744 240.04 329.744C246.064 329.744 250.136 328.896 252.24 327.2C254.344 325.504 255.4 322.056 255.4 316.864V313.36C255.4 308.616 254.536 305.336 252.8 303.528C251.064 301.72 247.864 300.328 243.2 299.344L241.392 298.896C237.848 298.144 235.064 297.408 233.032 296.696C231 295.984 229 294.928 227.04 293.528C225.08 292.136 223.688 290.312 222.864 288.048C222.032 285.792 221.624 282.96 221.624 279.576V276.752C221.624 269.296 223.432 264.136 227.048 261.272C230.664 258.408 236.384 256.976 244.224 256.976C249.8 256.976 254.24 257.504 257.56 258.56C258.76 258.936 259.408 259.616 259.48 260.592L259.928 264.888C260 265.416 259.928 265.792 259.704 266.016C259.48 266.24 259.064 266.32 258.464 266.24C254.696 265.04 249.8 264.432 243.776 264.432C239.184 264.432 235.848 265.24 233.776 266.856C231.704 268.472 230.672 271.464 230.672 275.832V278.432C230.672 282.568 231.52 285.408 233.216 286.952C234.912 288.496 238.248 289.792 243.224 290.848L245.032 291.296C252.264 292.808 257.288 294.952 260.112 297.744C262.936 300.536 264.352 305.504 264.352 312.664V316.168C264.352 324.384 262.616 330.04 259.152 333.128C255.688 336.216 249.512 337.76 240.616 337.76C235.04 337.76 229.432 337.152 223.784 335.952C222.72 335.648 222.16 334.976 222.08 333.92Z" fill="#2243A4"/>
<path d="M278.352 319.904V297.08C278.352 290.376 280.2 285.664 283.888 282.952C287.576 280.24 292.624 278.888 299.032 278.888H300.16C306.488 278.888 311.4 280.224 314.904 282.896C318.408 285.568 320.16 290.296 320.16 297.08V319.904C320.16 326.608 318.312 331.32 314.624 334.032C310.936 336.744 305.888 338.096 299.48 338.096H298.352C292.024 338.096 287.104 336.76 283.608 334.088C280.104 331.416 278.352 326.688 278.352 319.904ZM298.24 330.304H299.592C307.272 330.304 311.12 326.576 311.12 319.12V297.2C311.12 293.28 310.232 290.48 308.464 288.784C306.696 287.088 303.96 286.24 300.272 286.24H298.92C295.08 286.24 292.2 287.088 290.272 288.784C288.352 290.48 287.392 293.288 287.392 297.2V319.232C287.392 323.152 288.28 325.976 290.048 327.704C291.816 329.44 294.552 330.304 298.24 330.304Z" fill="#2243A4"/>
<path d="M338.352 335.16V287.136H331.456C330.4 287.136 329.872 286.608 329.872 285.552V281.824C329.872 280.768 330.4 280.24 331.456 280.24H338.352V272.216C338.352 260.392 344.68 254.48 357.336 254.48C357.784 254.48 358.24 254.496 358.688 254.536C359.136 254.576 359.536 254.616 359.872 254.648C360.208 254.688 360.512 254.704 360.776 254.704C361.04 254.704 361.248 254.704 361.4 254.704L361.624 254.816C362.824 255.04 363.472 255.568 363.544 256.4L363.88 260.92C363.952 261.528 363.896 261.904 363.712 262.048C363.52 262.2 363.128 262.24 362.528 262.16L361.736 262.048C361.208 261.976 360.552 261.92 359.76 261.88C358.968 261.84 358.16 261.824 357.328 261.824C350.696 261.824 347.384 265.024 347.384 271.432V280.248H370.432V266.12C370.432 265.216 370.848 264.728 371.672 264.648L378.112 263.856C379.016 263.784 379.464 264.192 379.464 265.096V280.24H392.456C393.136 280.24 393.568 280.312 393.752 280.464C393.936 280.616 394.032 280.992 394.032 281.592L394.6 285.656C394.672 286.256 394.6 286.656 394.376 286.84C394.152 287.032 393.736 287.12 393.136 287.12H379.464V321.6C379.464 324.992 380.032 327.176 381.16 328.152C382.288 329.136 384.624 329.624 388.168 329.624C389.224 329.624 390.392 329.552 391.672 329.4C392.952 329.248 393.704 329.176 393.928 329.176C394.832 329.176 395.248 329.664 395.168 330.648L394.6 334.944C394.448 336.072 393.96 336.712 393.128 336.864C391.24 337.24 389.176 337.432 386.912 337.432C381.264 337.432 377.096 336.36 374.424 334.208C371.752 332.064 370.416 327.864 370.416 321.608V287.144H347.368V335.168C347.368 336.224 346.84 336.752 345.784 336.752H339.912C338.88 336.744 338.352 336.216 338.352 335.16Z" fill="#2243A4"/>
</svg>
