<svg width="16" height="17" viewBox="0 0 16 17" fill="none" xmlns="http://www.w3.org/2000/svg">
<path d="M2.16317 4.55143C2.58144 4.25909 3.21195 4.31515 3.5875 4.62529L3.15678 3.99923C2.81015 3.50487 2.9343 2.97003 3.4291 2.62296C3.9239 2.27722 5.32598 3.20675 5.32598 3.20675C4.97623 2.7075 5.04164 2.07476 5.54089 1.72458C6.04014 1.37572 6.72895 1.49631 7.07869 1.99645L11.7152 8.54631L11.1243 14.2752L6.19276 12.4767L1.8913 6.09901C1.53845 5.59665 1.66037 4.90384 2.16317 4.55143Z" fill="#EF9645"/>
<path d="M1.19918 8.19513C1.19918 8.19513 0.695478 7.46094 1.43011 6.95769C2.16386 6.45444 2.66711 7.18818 2.66711 7.18818L5.00362 10.5957C5.08415 10.4613 5.17226 10.3287 5.27059 10.1979L2.0277 5.46929C2.0277 5.46929 1.52445 4.73554 2.25864 4.23229C2.99238 3.72903 3.49563 4.46278 3.49563 4.46278L6.54586 8.91108C6.65933 8.81853 6.77546 8.72553 6.89516 8.63431L3.35903 3.47674C3.35903 3.47674 2.85578 2.74299 3.58997 2.23974C4.32371 1.73649 4.82697 2.47023 4.82697 2.47023L8.36309 7.62691C8.49302 7.54727 8.62161 7.4783 8.75065 7.40532L5.44546 2.58548C5.44546 2.58548 4.94221 1.85173 5.67596 1.34848C6.4097 0.845225 6.91295 1.57897 6.91295 1.57897L10.4077 6.67558L10.939 7.45071C8.73731 8.96092 8.52773 11.802 9.78564 13.6366C10.037 14.0037 10.4041 13.7523 10.4041 13.7523C8.89438 11.5502 9.35536 9.07572 11.5575 7.56595L10.9083 4.31683C10.9083 4.31683 10.6658 3.46072 11.5214 3.21777C12.3776 2.97527 12.6205 3.83138 12.6205 3.83138L13.3703 6.05797C13.6675 6.94078 13.9839 7.82047 14.4026 8.65256C15.5848 11.002 14.8787 13.9218 12.6494 15.4512C10.2177 17.1184 6.89338 16.4986 5.22565 14.0673L1.19918 8.19513Z" fill="#FFDC5D"/>
<path d="M5.33954 14.7388C3.55969 14.7388 1.76114 12.9403 1.76114 11.1604C1.76114 10.9144 1.58093 10.7155 1.33487 10.7155C1.0888 10.7155 0.871216 10.9144 0.871216 11.1604C0.871216 13.8302 2.66976 15.6287 5.33954 15.6287C5.5856 15.6287 5.7845 15.4112 5.7845 15.1651C5.7845 14.919 5.5856 14.7388 5.33954 14.7388Z" fill="#928B8B" fill-opacity="0.2"/>
<path d="M3.11475 15.6101C1.77985 15.6101 0.889927 14.7201 0.889927 13.3852C0.889927 13.1392 0.691028 12.9403 0.444964 12.9403C0.198899 12.9403 0 13.1392 0 13.3852C0 15.1651 1.33489 16.5 3.11475 16.5C3.36081 16.5 3.55971 16.3011 3.55971 16.055C3.55971 15.8089 3.36081 15.6101 3.11475 15.6101ZM10.6791 1.37122C10.4335 1.37122 10.2342 1.57056 10.2342 1.81618C10.2342 2.0618 10.4335 2.26114 10.6791 2.26114C12.459 2.26114 14.2388 3.85812 14.2388 5.82085C14.2388 6.06647 14.4382 6.26582 14.6838 6.26582C14.9294 6.26582 15.1288 6.06647 15.1288 5.82085C15.1288 3.36732 13.3489 1.37122 10.6791 1.37122Z" fill="#928B8B" fill-opacity="0.2"/>
<path d="M12.9039 0.5C12.6583 0.5 12.459 0.680655 12.459 0.926275C12.459 1.1719 12.6583 1.38993 12.9039 1.38993C14.2388 1.38993 15.1101 2.37997 15.1101 3.59606C15.1101 3.84168 15.3277 4.04102 15.5737 4.04102C15.8198 4.04102 16 3.84168 16 3.59606C16 1.88873 14.6838 0.5 12.9039 0.5Z" fill="#928B8B" fill-opacity="0.2"/>
</svg>
